<svg width="26" height="26" viewBox="0 0 26 26" fill="none" xmlns="http://www.w3.org/2000/svg">
<g id="cib:youtube" clip-path="url(#clip0_12_1013)">
<path id="Vector" d="M24.8946 6.57296C24.7469 6.04511 24.4655 5.56432 24.0775 5.17716C23.6895 4.79 23.2081 4.50958 22.6799 4.36306C20.6973 3.83303 12.727 3.83303 12.727 3.83303C12.727 3.83303 4.77183 3.82032 2.76854 4.36306C2.24121 4.51023 1.76077 4.79094 1.37364 5.17807C0.986516 5.56519 0.705803 6.04564 0.558635 6.57296C0.182133 8.60265 -0.0032998 10.6632 0.00476897 12.7275C0.00109526 14.7818 0.186499 16.8322 0.558635 18.8526C0.706279 19.3802 0.987075 19.861 1.37407 20.2488C1.76106 20.6366 2.24125 20.9185 2.76854 21.0672C4.75117 21.5973 12.727 21.5973 12.727 21.5973C12.727 21.5973 20.6774 21.5973 22.6799 21.0672C23.208 20.9191 23.6892 20.6376 24.077 20.2497C24.4649 19.8618 24.7464 19.3807 24.8946 18.8526C25.2593 16.8334 25.4373 14.78 25.4246 12.7275C25.4373 10.6614 25.2633 8.60486 24.8946 6.57296ZM10.181 16.5314V8.90683L16.8154 12.7275L10.181 16.5314Z" fill="white"/>
</g>
<defs>
<clipPath id="clip0_12_1013">
<rect width="25.4286" height="25.4286" fill="white"/>
</clipPath>
</defs>
</svg>
