<svg width="27" height="27" viewBox="0 0 27 27" fill="none" xmlns="http://www.w3.org/2000/svg">
<g id="clarity:shopping-cart-solid">
<path id="Vector" d="M10.125 24C11.1605 24 12 23.1605 12 22.125C12 21.0895 11.1605 20.25 10.125 20.25C9.08947 20.25 8.25 21.0895 8.25 22.125C8.25 23.1605 9.08947 24 10.125 24Z" fill="#006DAB"/>
<path id="Vector_2" d="M19.875 24C20.9105 24 21.75 23.1605 21.75 22.125C21.75 21.0895 20.9105 20.25 19.875 20.25C18.8395 20.25 18 21.0895 18 22.125C18 23.1605 18.8395 24 19.875 24Z" fill="#006DAB"/>
<path id="Vector_3" d="M24.825 4.79264C24.7551 4.70188 24.6654 4.62833 24.5627 4.57763C24.46 4.52692 24.347 4.50042 24.2325 4.50014H6.90749L6.56999 3.42764C6.53292 3.31249 6.46854 3.20801 6.38234 3.12312C6.29615 3.03823 6.1907 2.97545 6.07499 2.94014L2.99999 1.99514C2.90544 1.96609 2.80609 1.95594 2.70762 1.96528C2.60914 1.97462 2.51347 2.00326 2.42607 2.04958C2.24955 2.14311 2.11742 2.30294 2.05874 2.49389C2.00006 2.68485 2.01964 2.89129 2.11318 3.06781C2.20671 3.24433 2.36654 3.37646 2.55749 3.43514L5.24999 4.26014L8.68499 15.1126L7.46249 16.1176L7.36499 16.2151C7.06266 16.5652 6.89138 17.0095 6.88043 17.4719C6.86949 17.9343 7.01957 18.3862 7.30499 18.7501C7.50941 18.9987 7.76917 19.196 8.06349 19.3263C8.35782 19.4565 8.67853 19.516 8.99999 19.5001H21.5175C21.7164 19.5001 21.9072 19.4211 22.0478 19.2805C22.1885 19.1398 22.2675 18.9491 22.2675 18.7501C22.2675 18.5512 22.1885 18.3605 22.0478 18.2198C21.9072 18.0792 21.7164 18.0001 21.5175 18.0001H8.87999C8.79362 17.9972 8.70948 17.972 8.63568 17.9271C8.56189 17.8821 8.50093 17.8189 8.45871 17.7435C8.41649 17.6681 8.39442 17.583 8.39465 17.4966C8.39487 17.4102 8.41738 17.3253 8.45999 17.2501L10.2675 15.7501H21.84C22.0113 15.7551 22.1792 15.7013 22.3156 15.5976C22.4521 15.4939 22.5489 15.3465 22.59 15.1801L24.99 5.43014C25.0128 5.31833 25.0098 5.20279 24.9812 5.09231C24.9526 4.98184 24.8992 4.87935 24.825 4.79264Z" fill="#006DAB"/>
</g>
</svg>
