<svg width="18" height="18" viewBox="0 0 18 18" fill="none" xmlns="http://www.w3.org/2000/svg">
<g id="clarity:grid-view-solid">
<path id="Vector" d="M7.00018 2H3.00018C2.4479 2 2.00018 2.44772 2.00018 3V7C2.00018 7.55229 2.4479 8 3.00018 8H7.00018C7.55247 8 8.00018 7.55229 8.00018 7V3C8.00018 2.44772 7.55247 2 7.00018 2Z" fill="#373737"/>
<path id="Vector_2" d="M14.8951 2H10.8951C10.3428 2 9.89508 2.44772 9.89508 3V7C9.89508 7.55229 10.3428 8 10.8951 8H14.8951C15.4474 8 15.8951 7.55229 15.8951 7V3C15.8951 2.44772 15.4474 2 14.8951 2Z" fill="#373737"/>
<path id="Vector_3" d="M7.00018 9.7998H3.00018C2.4479 9.7998 2.00018 10.2475 2.00018 10.7998V14.7998C2.00018 15.3521 2.4479 15.7998 3.00018 15.7998H7.00018C7.55247 15.7998 8.00018 15.3521 8.00018 14.7998V10.7998C8.00018 10.2475 7.55247 9.7998 7.00018 9.7998Z" fill="#373737"/>
<path id="Vector_4" d="M14.8951 9.7998H10.8951C10.3428 9.7998 9.89508 10.2475 9.89508 10.7998V14.7998C9.89508 15.3521 10.3428 15.7998 10.8951 15.7998H14.8951C15.4474 15.7998 15.8951 15.3521 15.8951 14.7998V10.7998C15.8951 10.2475 15.4474 9.7998 14.8951 9.7998Z" fill="#373737"/>
</g>
</svg>
