<svg width="22" height="22" viewBox="0 0 22 22" fill="none" xmlns="http://www.w3.org/2000/svg">
<g id="ic:round-view-list">
<path id="Vector" d="M3.66667 12.833H5.5C6.00417 12.833 6.41667 12.4205 6.41667 11.9163V10.083C6.41667 9.57884 6.00417 9.16634 5.5 9.16634H3.66667C3.1625 9.16634 2.75 9.57884 2.75 10.083V11.9163C2.75 12.4205 3.1625 12.833 3.66667 12.833ZM3.66667 17.4163H5.5C6.00417 17.4163 6.41667 17.0038 6.41667 16.4997V14.6663C6.41667 14.1622 6.00417 13.7497 5.5 13.7497H3.66667C3.1625 13.7497 2.75 14.1622 2.75 14.6663V16.4997C2.75 17.0038 3.1625 17.4163 3.66667 17.4163ZM3.66667 8.24968H5.5C6.00417 8.24968 6.41667 7.83717 6.41667 7.33301V5.49967C6.41667 4.99551 6.00417 4.58301 5.5 4.58301H3.66667C3.1625 4.58301 2.75 4.99551 2.75 5.49967V7.33301C2.75 7.83717 3.1625 8.24968 3.66667 8.24968ZM8.25 12.833H18.3333C18.8375 12.833 19.25 12.4205 19.25 11.9163V10.083C19.25 9.57884 18.8375 9.16634 18.3333 9.16634H8.25C7.74583 9.16634 7.33333 9.57884 7.33333 10.083V11.9163C7.33333 12.4205 7.74583 12.833 8.25 12.833ZM8.25 17.4163H18.3333C18.8375 17.4163 19.25 17.0038 19.25 16.4997V14.6663C19.25 14.1622 18.8375 13.7497 18.3333 13.7497H8.25C7.74583 13.7497 7.33333 14.1622 7.33333 14.6663V16.4997C7.33333 17.0038 7.74583 17.4163 8.25 17.4163ZM7.33333 5.49967V7.33301C7.33333 7.83717 7.74583 8.24968 8.25 8.24968H18.3333C18.8375 8.24968 19.25 7.83717 19.25 7.33301V5.49967C19.25 4.99551 18.8375 4.58301 18.3333 4.58301H8.25C7.74583 4.58301 7.33333 4.99551 7.33333 5.49967Z" fill="#373737" fill-opacity="0.4"/>
</g>
</svg>
