<svg width="21" height="22" viewBox="0 0 21 22" fill="none" xmlns="http://www.w3.org/2000/svg">
<path id="Vector" d="M10.4639 7.60496C8.59624 7.60496 7.07206 9.19267 7.07206 11.1382C7.07206 13.0837 8.59624 14.6715 10.4639 14.6715C12.3316 14.6715 13.8558 13.0837 13.8558 11.1382C13.8558 9.19267 12.3316 7.60496 10.4639 7.60496ZM20.6369 11.1382C20.6369 9.67507 20.6497 8.2252 20.5708 6.76472C20.4919 5.06833 20.1204 3.56279 18.9296 2.32231C17.7362 1.07918 16.2934 0.694841 14.6649 0.612673C13.2604 0.530504 11.8685 0.543757 10.4665 0.543757C9.06188 0.543757 7.67003 0.530504 6.26799 0.612673C4.63949 0.694841 3.1942 1.08183 2.00336 2.32231C0.809979 3.56544 0.441022 5.06833 0.362142 6.76472C0.283261 8.22785 0.295984 9.67773 0.295984 11.1382C0.295984 12.5987 0.283261 14.0512 0.362142 15.5117C0.441022 17.2081 0.812523 18.7136 2.00336 19.9541C3.19675 21.1972 4.63949 21.5816 6.26799 21.6637C7.67257 21.7459 9.06443 21.7327 10.4665 21.7327C11.871 21.7327 13.2629 21.7459 14.6649 21.6637C16.2934 21.5816 17.7387 21.1946 18.9296 19.9541C20.123 18.711 20.4919 17.2081 20.5708 15.5117C20.6522 14.0512 20.6369 12.6013 20.6369 11.1382ZM10.4639 16.5746C7.57588 16.5746 5.24509 14.1466 5.24509 11.1382C5.24509 8.12978 7.57588 5.70183 10.4639 5.70183C13.352 5.70183 15.6828 8.12978 15.6828 11.1382C15.6828 14.1466 13.352 16.5746 10.4639 16.5746ZM15.8965 6.74881C15.2222 6.74881 14.6777 6.18158 14.6777 5.47917C14.6777 4.77677 15.2222 4.20954 15.8965 4.20954C16.5708 4.20954 17.1153 4.77677 17.1153 5.47917C17.1155 5.64596 17.0841 5.81116 17.023 5.96529C16.9618 6.11943 16.872 6.25947 16.7588 6.37741C16.6456 6.49535 16.5111 6.58886 16.3632 6.65259C16.2152 6.71632 16.0566 6.74902 15.8965 6.74881Z" fill="white"/>
</svg>
