<svg width="161" height="46" viewBox="0 0 161 46" fill="none" xmlns="http://www.w3.org/2000/svg">
<circle cx="23" cy="23" r="23" fill="#039600"/>
<circle cx="80.5" cy="23" r="23" fill="#BC0000"/>
<circle cx="138" cy="23" r="23" fill="#FFC700"/>
<path d="M91.3747 20.8774C91.5162 21.6352 91.5932 22.4276 91.5932 23.2544C91.5932 29.722 87.2646 34.3209 80.7269 34.3209C79.2401 34.3213 77.7678 34.0288 76.3941 33.4601C75.0204 32.8913 73.7723 32.0575 72.721 31.0062C71.6697 29.9549 70.8358 28.7067 70.2671 27.333C69.6983 25.9593 69.4058 24.4871 69.4063 23.0003C69.4058 21.5135 69.6983 20.0412 70.2671 18.6675C70.8358 17.2939 71.6697 16.0457 72.721 14.9944C73.7723 13.9431 75.0204 13.1092 76.3941 12.5405C77.7678 11.9717 79.2401 11.6792 80.7269 11.6797C83.7836 11.6797 86.3377 12.8044 88.2973 14.6306L85.1061 17.8218V17.8138C83.9181 16.6822 82.4105 16.1014 80.7269 16.1014C76.9917 16.1014 73.9557 19.257 73.9557 22.9934C73.9557 26.7286 76.9917 29.8911 80.7269 29.8911C84.1159 29.8911 86.4228 27.9533 86.8966 25.2922H80.7269V20.8774H91.3759H91.3747Z" fill="white"/>
<path d="M138 10.9258C145.78 10.9258 152.088 15.8416 152.088 21.9073C152.088 27.9717 145.78 32.8875 138 32.8875C137.225 32.8879 136.451 32.8386 135.683 32.7399L129.769 36.608C129.097 36.9635 128.859 36.9246 129.136 36.0539L130.332 31.1192C126.468 29.1604 123.913 25.766 123.913 21.9073C123.913 15.843 130.22 10.9258 138 10.9258ZM145.925 21.7396L147.898 19.8291C148.011 19.7109 148.075 19.5531 148.075 19.3891C148.074 19.225 148.011 19.0674 147.897 18.9495C147.782 18.8316 147.627 18.7626 147.463 18.7569C147.299 18.7513 147.139 18.8096 147.017 18.9194L144.431 21.423V19.3541C144.431 19.1862 144.364 19.0251 144.245 18.9063C144.126 18.7876 143.965 18.7209 143.797 18.7209C143.629 18.7209 143.468 18.7876 143.35 18.9063C143.231 19.0251 143.164 19.1862 143.164 19.3541V22.7848C143.14 22.8826 143.14 22.9848 143.164 23.0826V25.0133C143.164 25.1812 143.231 25.3423 143.35 25.4611C143.468 25.5798 143.629 25.6466 143.797 25.6466C143.965 25.6466 144.126 25.5798 144.245 25.4611C144.364 25.3423 144.431 25.1812 144.431 25.0133V23.1846L145.004 22.6305L146.919 25.3581C146.967 25.4262 147.028 25.4842 147.098 25.5288C147.169 25.5734 147.247 25.6037 147.329 25.6181C147.411 25.6324 147.495 25.6304 147.576 25.6123C147.657 25.5942 147.734 25.5602 147.802 25.5124C147.87 25.4645 147.928 25.4038 147.973 25.3335C148.018 25.2633 148.048 25.1849 148.062 25.1029C148.077 25.021 148.075 24.937 148.057 24.8557C148.038 24.7745 148.004 24.6977 147.957 24.6296L145.925 21.7383V21.7396ZM141.957 24.321H139.998V19.3743C139.99 19.2115 139.92 19.0579 139.803 18.9454C139.685 18.8329 139.528 18.7701 139.365 18.7701C139.202 18.7701 139.046 18.8329 138.928 18.9454C138.81 19.0579 138.74 19.2115 138.733 19.3743V24.9543C138.733 25.3031 139.014 25.5875 139.365 25.5875H141.957C142.125 25.5875 142.286 25.5208 142.404 25.402C142.523 25.2833 142.59 25.1222 142.59 24.9543C142.59 24.7863 142.523 24.6252 142.404 24.5065C142.286 24.3877 142.125 24.321 141.957 24.321ZM134.099 22.8559L135.032 20.5657L135.888 22.8559H134.099ZM137.484 23.5106L137.486 23.4892C137.486 23.3296 137.425 23.1762 137.316 23.0598L135.912 19.3031C135.854 19.1241 135.742 18.9673 135.591 18.8537C135.441 18.74 135.26 18.675 135.071 18.6672C134.882 18.6664 134.696 18.7233 134.54 18.8304C134.383 18.9376 134.263 19.0898 134.195 19.2669L131.967 24.7342C131.935 24.8112 131.919 24.8936 131.92 24.9768C131.92 25.06 131.937 25.1423 131.969 25.2189C132.001 25.2956 132.048 25.3652 132.107 25.4237C132.166 25.4823 132.236 25.5286 132.313 25.56C132.39 25.5915 132.473 25.6074 132.556 25.607C132.639 25.6066 132.721 25.5898 132.798 25.5576C132.875 25.5254 132.944 25.4784 133.003 25.4193C133.061 25.3602 133.108 25.2902 133.139 25.2132L133.582 24.1224H136.359L136.76 25.1957C136.788 25.276 136.831 25.3499 136.887 25.4132C136.944 25.4765 137.012 25.5278 137.089 25.5641C137.165 25.6004 137.248 25.621 137.333 25.6246C137.418 25.6282 137.502 25.6148 137.581 25.5852C137.661 25.5556 137.733 25.5103 137.795 25.4521C137.857 25.3939 137.906 25.3239 137.94 25.2463C137.974 25.1687 137.992 25.085 137.993 25.0003C137.994 24.9156 137.978 24.8315 137.946 24.753L137.484 23.5106ZM133.027 19.381C133.027 19.2132 132.96 19.0524 132.842 18.9337C132.723 18.8149 132.562 18.7481 132.395 18.7477H128.041C127.873 18.7477 127.712 18.8144 127.593 18.9332C127.474 19.0519 127.408 19.213 127.408 19.381C127.408 19.5489 127.474 19.71 127.593 19.8288C127.712 19.9475 127.873 20.0142 128.041 20.0142H129.597V25.0267C129.597 25.1947 129.664 25.3557 129.783 25.4745C129.901 25.5932 130.063 25.66 130.231 25.66C130.398 25.66 130.56 25.5932 130.678 25.4745C130.797 25.3557 130.864 25.1947 130.864 25.0267V20.0142H132.393C132.561 20.0142 132.722 19.9475 132.841 19.8288C132.96 19.71 133.027 19.5489 133.027 19.381Z" fill="black"/>
<g clip-path="url(#clip0_2_1112)">
<path d="M12.6499 13.7998V32.0983H19.8579V22.9434L26.1303 32.0983H33.3499V13.7998H26.1303V22.9434L19.8579 13.7998H12.6499Z" fill="white"/>
</g>
<defs>
<clipPath id="clip0_2_1112">
<rect width="20.7" height="18.4" fill="white" transform="translate(12.6499 13.7998)"/>
</clipPath>
</defs>
</svg>
