<svg width="279" height="19" viewBox="0 0 279 19" fill="none" xmlns="http://www.w3.org/2000/svg">
<path d="M139.201 9.98926C139.201 11.6162 138.793 12.8809 137.977 13.7832C137.166 14.6855 136.015 15.1367 134.525 15.1367C133.016 15.1367 131.857 14.6901 131.045 13.7969C130.239 12.8991 129.835 11.6253 129.835 9.97559C129.835 8.32585 130.241 7.05892 131.052 6.1748C131.868 5.29069 133.03 4.84863 134.539 4.84863C136.024 4.84863 137.173 5.29753 137.984 6.19531C138.795 7.0931 139.201 8.35775 139.201 9.98926ZM131.572 9.98926C131.572 11.2197 131.82 12.154 132.317 12.792C132.814 13.4255 133.55 13.7422 134.525 13.7422C135.496 13.7422 136.227 13.4277 136.719 12.7988C137.216 12.1699 137.464 11.2334 137.464 9.98926C137.464 8.76335 137.218 7.83366 136.726 7.2002C136.238 6.56673 135.509 6.25 134.539 6.25C133.559 6.25 132.818 6.56673 132.317 7.2002C131.82 7.83366 131.572 8.76335 131.572 9.98926ZM142.981 9.6543H144.116C144.877 9.6543 145.428 9.51302 145.77 9.23047C146.112 8.94792 146.283 8.52865 146.283 7.97266C146.283 7.40755 146.098 7.00195 145.729 6.75586C145.36 6.50977 144.804 6.38672 144.061 6.38672H142.981V9.6543ZM142.981 11.0078V15H141.347V5.00586H144.17C145.46 5.00586 146.415 5.2474 147.035 5.73047C147.654 6.21354 147.964 6.94271 147.964 7.91797C147.964 9.16211 147.317 10.0485 146.023 10.5771L148.846 15H146.987L144.594 11.0078H142.981Z" fill="#6D6D6D"/>
<line x1="0.5" y1="9.5" x2="118.517" y2="9.5" stroke="#373737" stroke-opacity="0.15" stroke-linecap="round"/>
<line x1="159.517" y1="9.5" x2="277.533" y2="9.5" stroke="#373737" stroke-opacity="0.15" stroke-linecap="round"/>
</svg>
